# xmcd
#
# Track frame offsets:
#	150
#	18550
#	38825
#	58975
#	76062
#	94425
#	111850
#	138850
#	156600
#	179325
#
# Disc length: 2659 seconds
#
# Revision: 1
# Processed by: cddbd v1.5.2PL0 Copyright (c) Steve Scherf et al.
# Submitted via: EZCDAudioConverter 8.0.2.1
#
DISCID=870a610a
DTITLE=Don Hồ, Giáng Ngọc - Dấu Chân Người Tình
DYEAR=1994
DGENRE=World Pop
TTITLE0=Don Hồ, Giáng Ngọc - Dấu Chân Người Tình
TTITLE1=Giáng Ngọc - Tiễn anh trong mưa
TTITLE2=Don Hồ - Này em yêu hỡi
TTITLE3=Ngọc Anh - Tình muộn
TTITLE4=Giáng Ngọc - Chuyến bay đêm
TTITLE5=Giáng Ngọc - Mịt mù nỗi nhớ
TTITLE6=Thúy Vi - Anh đã thấy mùa xuân chưa
TTITLE7=Don Hồ - Ru ta ngậm ngùi
TTITLE8=Giáng Ngọc - Bão tình
TTITLE9=Ngọc Anh - Ngày vui qua mau
EXTD=
EXTT0=
EXTT1=
EXTT2=
EXTT3=
EXTT4=
EXTT5=
EXTT6=
EXTT7=
EXTT8=
EXTT9=
PLAYORDER=
